<?xml version="1.0" encoding="UTF-8"?>
<svg xmlns="http://www.w3.org/2000/svg" width="13" height="13" viewBox="0 0 13 13" version="1.1">
    <path style=" stroke:none;fill-rule:nonzero;fill:#AFB1B3;fill-opacity:1;"
          d="M 6.5 9.371094 C 5.707031 9.371094 5.027344 9.089844 4.46875 8.53125 C 3.910156 7.972656 3.628906 7.292969 3.628906 6.5 C 3.628906 5.707031 3.910156 5.027344 4.46875 4.460938 C 5.027344 3.898438 5.707031 3.617188 6.5 3.617188 C 7.292969 3.617188 7.972656 3.898438 8.539062 4.460938 C 9.101562 5.027344 9.382812 5.707031 9.382812 6.5 C 9.382812 7.292969 9.101562 7.972656 8.539062 8.53125 C 7.972656 9.089844 7.292969 9.371094 6.5 9.371094 Z M 2.558594 11.714844 C 2.207031 11.714844 1.90625 11.589844 1.660156 11.339844 C 1.410156 11.09375 1.285156 10.792969 1.285156 10.441406 L 1.285156 8.234375 L 2.558594 8.234375 L 2.558594 10.441406 L 4.765625 10.441406 L 4.765625 11.714844 Z M 8.234375 11.714844 L 8.234375 10.441406 L 10.441406 10.441406 L 10.441406 8.234375 L 11.726562 8.234375 L 11.726562 10.441406 C 11.726562 10.792969 11.601562 11.09375 11.347656 11.339844 C 11.09375 11.589844 10.792969 11.714844 10.441406 11.714844 Z M 1.285156 4.765625 L 1.285156 2.558594 C 1.285156 2.207031 1.410156 1.90625 1.660156 1.652344 C 1.90625 1.398438 2.207031 1.273438 2.558594 1.273438 L 4.765625 1.273438 L 4.765625 2.558594 L 2.558594 2.558594 L 2.558594 4.765625 Z M 10.441406 4.765625 L 10.441406 2.558594 L 8.234375 2.558594 L 8.234375 1.273438 L 10.441406 1.273438 C 10.792969 1.273438 11.09375 1.398438 11.347656 1.652344 C 11.601562 1.90625 11.726562 2.207031 11.726562 2.558594 L 11.726562 4.765625 Z M 10.441406 4.765625 "/>
</svg>
